<svg xmlns="http://www.w3.org/2000/svg" width="400" height="160" version="1" id="infosys"><g transform="matrix(1.25 0 0 -1.25 -574.003 602.945)"><text transform="matrix(1 0 0 -1 59.76 63.9)"><tspan x="0 3.688 7.376 11.064 14.752 17.01 18.778 22.026 24.386 27.634 30.586 33.834 36.786 39.045 42.877 45.973 49.069 52.317 55.565 58.813 60.293 63.541 66.789 68.269 71.365 74.317 76.575 79.671 81.151 86.015 87.495 89.855 92.951 96.199 97.967 100.226 104.21 107.458 110.706 113.954 117.202 118.682 121.93 124.138 127.234 129.002 131.26 133.028 136.276 139.524 141.004 144.252 146.02 148.278 150.046 153.294 155.654 158.902 161.854 165.102 168.054 170.313 173.561 176.657 178.137 179.617 182.713 185.809 188.905 191.857 194.115 196.475 199.723 202.819 205.078 206.558 209.806 212.166 215.414 217.622 222.486 225.734 228.094 229.574 232.822 236.07 238.328 239.808 243.056 245.314 247.674 250.922 252.402 255.354 257.613 260.861 264.109 267.357 268.837 270.317 273.413 276.661 279.021 280.501 283.749 286.997 289.255 290.735 293.687 295.946 299.194 302.29 305.386 308.634 310.842 314.09 316.45 319.546 321.804 325.052 328.004 330.262 333.51 335.87 338.129 339.609 341.969 344.862 347.12 350.368 353.616 356.864 358.344 359.824 362.92 366.168 368.528 370.008 373.256 376.504 378.762 382.01 385.258 387.618 390.714 392.482 394.741 397.693 400.941 404.037 407.285 409.543 411.023 414.271 416.631 419.879 422.087 426.951 430.199 432.559 434.039 437.287 440.535 442.794 444.274 447.226 449.484 452.436 455.684 458.932 460.412 463.508 466.604 468.964 471.222 473.582 476.83 479.089 482.185 485.433 488.681 491.929 495.177" y="0" fill="#fff" font-family="UniversCondensed" font-size="8" font-weight="500" style="-inkscape-font-specification:UniversCondensed-Medium">2007 Infosys Technologies Limited, Bangalore, India. Infosys believes the information in this publication is accurate as of its publication date; such information is subject to change</tspan><tspan x="-5.76 -.594 .883 3.241 6.486 9.732 12.978 15.335 17.19 20.436 23.682 26.039 27.517 30.61 33.704 35.47 37.325 39.09 42.336 44.694 47.939 50.889 54.134 57.084 58.939 62.185 65.278 68.524 71.77 75.015 80.181 81.658 84.752 87.998 91.243 94.337 97.286 99.142 101.499 104.745 107.838 109.694 112.939 115.145 118.39 121.636 123.842 125.319 128.413 130.77 134.016 136.222 139.467 141.322 143.528 145.006 148.251 151.497 153.854 156.804 158.659 161.905 164.262 166.118 168.475 171.721 174.814 176.67 179.027 181.233 184.478 187.724 190.818 195.679 198.925 201.13 204.376 207.326 209.181 212.426 215.672 218.918 220.773 224.018 226.224 229.47 232.715 235.961 239.054 241.412 243.267 246.513 249.758 254.62 257.714 260.663 262.518 265.764 268.122 269.977 273.222 275.58 278.826 281.919 284.125 285.98 289.074 292.319 297.181 300.426 303.672 306.918 308.395 311.489 314.438 316.294 321.155 324.249 327.494 329.852 331.33 334.575 337.821 340.914 344.16 346.015 347.493 350.687 352.542 354.9 358.146 359.623 362.573 364.428 367.674 370.919 374.013 377.258 382.12 385.214 388.459 390.817" y="9.18" fill="#fff" font-family="UniversCondensed" font-size="8" font-weight="500" style="-inkscape-font-specification:UniversCondensed-Medium">without notice. Infosys acknowledges the proprietary rights of the trademarks and product names of other companies mentioned in this document.</tspan><tspan x="-5.76" y="1.08" fill="#fff" font-family="UniversCondensed" font-size="8" font-weight="500" style="-inkscape-font-specification:UniversCondensed-Medium">©</tspan></text><path fill="none" stroke="#fff" stroke-miterlimit="10" stroke-width=".24" d="M 54.36,74.7 L 558,74.7"></path><g transform="translate(-1722.917 15.116) scale(2.565)"><path fill="#3781c2" fill-rule="evenodd" d="M851.813 176.314L851.812 176.373 851.812 181.096 856.525 181.096 856.525 146.455 856.527 146.347 856.527 141.673 851.812 141.673 851.812 146.396 851.813 146.455 851.813 176.314M899.736 156.03C899.857 148.865 904.29 143.135 909.638 143.231 914.985 143.327 919.221 149.213 919.1 156.378 918.978 163.544 914.545 169.274 909.197 169.177 903.85 169.081 899.614 163.195 899.736 156.03zM938.759 164.693C938.882 164.42 938.59 165.101 938.59 165.101L938.759 164.693zM941.971 135.03C942.187 135.4 942.488 135.966 942.846 136.673L941.971 135.03zM942.248 167.165C942.305 167.006 942.371 166.84 942.445 166.665L944.032 162.756 942.248 167.165zM922.5 147.487C925.413 144.827 928.036 143.452 931.39 143.452 934.823 143.426 937.875 145.115 937.875 148.366 937.875 151.079 935.484 152.666 931.212 154.483 927.592 156.059 924.898 157.164 923.49 159.445 923.662 158.454 923.752 157.43 923.752 156.382 923.752 147.583 917.408 140.449 909.582 140.449 901.756 140.449 895.412 147.583 895.412 156.382 895.412 161.687 897.718 166.386 901.263 169.282L891.674 169.282 891.674 146.455 891.675 146.364 891.675 141.673 887.416 141.673 887.416 146.211C887.419 146.291 887.42 146.372 887.42 146.455L887.42 169.282 883.665 169.282 883.665 172.155 887.475 172.155C887.967 177.951 891.536 181.229 896.477 181.229 899.681 181.229 901.44 180.893 902.456 180.42L902.456 176.491C902.44 176.198 902.44 176.019 902.44 176.019 902.396 176.024 902.291 176.026 902.291 176.026 900.749 177.457 899.228 178.522 895.675 178.518 892.845 178.518 890.973 176.205 891.627 172.155L907.567 172.155C908.226 172.26 908.898 172.315 909.582 172.315 915.259 172.315 920.157 168.561 922.418 163.139 922.397 163.44 922.387 163.754 922.387 164.082 922.387 169.739 927.83 172.145 933.484 172.133 933.7 172.134 933.912 172.133 934.12 172.128 936.11 172.16 938.945 171.507 940.676 171.049L944.032 162.756 948.828 150.988 949.391 149.098 950.018 150.988 956.083 166.093C957.202 170.252 961.631 172.052 966.523 172.042 968.955 172.053 970.751 171.758 972.905 170.996L972.905 166.428C970.253 168.367 968.354 169.494 965.345 169.494 962.7 169.494 959.521 168.316 959.521 164.4 959.47 161.457 961.225 160.919 966.375 158.348 970.608 156.499 974.513 154.458 974.536 149.731 974.536 141.85 966.818 140.485 963.061 140.473 959.707 140.473 956.633 141.306 954.923 142.737L954.923 147.94 955.198 147.711C958.249 144.845 960.945 143.36 964.429 143.36 967.863 143.334 970.914 145.024 970.914 148.275 970.914 150.988 968.523 152.575 964.251 154.392 960.168 156.17 957.489 157.348 956.394 160.293 954.729 156.208 946.984 137.233 945.161 133.177L940.985 133.177 942.875 136.727C943.922 138.801 945.445 142.055 946.798 145.168L938.759 164.693C938.705 164.812 938.573 165.112 938.304 165.727 937.687 167.141 937.113 168.447 935.377 169.105 934.447 169.42 933.457 169.585 932.306 169.585 929.661 169.585 926.278 168.407 926.278 164.491 926.227 161.548 928.185 161.01 933.336 158.44 937.569 156.59 941.474 154.549 941.497 149.822 941.497 141.941 933.778 140.577 930.021 140.564 927.039 140.564 924.277 141.223 922.5 142.375L922.5 147.487M865.32 171.861L865.372 168.413 865.369 168.181 865.415 168.182C865.47 168.326 865.544 168.448 865.614 168.539 867.345 170.406 869.527 172.261 874.713 172.261 879.677 172.261 882.89 168.018 883.019 165.347L883.024 146.455 883.024 146.361 883.024 141.673 878.77 141.673 878.77 147.306 878.769 163.389C878.769 166.719 875.864 169.127 872.308 169.127 869.352 169.127 865.558 166.451 865.432 163.742L865.432 146.45 865.434 146.323 865.434 141.669 861.178 141.669 861.178 167.891 861.179 171.861 865.32 171.861"></path></g></g></svg>