<?xml version="1.0" encoding="utf-8"?>
<!-- Uploaded to: SVG Repo, www.svgrepo.com, Generator: SVG Repo Mixer Tools -->
<svg height="800px" width="800px" version="1.2" baseProfile="tiny" id="Layer_1" xmlns="http://www.w3.org/2000/svg" xmlns:xlink="http://www.w3.org/1999/xlink"
	  viewBox="0 0 256 256" xml:space="preserve">
<g id="XMLID_40_">
	<path id="XMLID_12_" fill="none" d="M66.2,129.3c-4.1,0-7.5,3.4-7.5,7.5c0,4.2,3.4,7.6,7.5,7.6c4.2,0,7.6-3.4,7.6-7.6
		C73.8,132.7,70.4,129.3,66.2,129.3z"/>
	<polygon id="XMLID_11_" fill="none" points="189.2,32.9 203.9,30.6 193.8,14.7 	"/>
	<path id="XMLID_50_" d="M150.3,51.4v10.3c27.4,9.4,47,35.3,47,65.9c0,17.7-6.8,34-17.7,46.3c0,0,3.3-37.1-40.5-37.1
		c-63-1.4-62.2-56.9-62.2-56.9c8.9-9.4,20.3-16.4,33.3-19.7V49.8c-29.7,6.7-54.6,30.3-60.4,55.7c-1.6,6.8-3.3,24.4-3.3,24.4
		l-16.7,42.4c-0.3,0.8-0.5,1.6-0.5,2.5c0,3.6,2.9,6.5,6.5,6.5h10.7v22.5c0,17.5,14.2,31.7,31.7,31.7h12.7v17.4h85.9v-61.1
		c18.8-14.7,30.8-37.6,30.8-63.3C207.5,92,183.4,61.3,150.3,51.4z M66.2,144.4c-4.1,0-7.5-3.4-7.5-7.6c0-4.1,3.4-7.5,7.5-7.5
		c4.2,0,7.6,3.4,7.6,7.5C73.8,141,70.4,144.4,66.2,144.4z"/>
	<path id="XMLID_47_" d="M197.9,3.1l-11.5,1.9l-13.6,49.3l11.5-1.9l2.8-11.2l21.6-3.5l6.3,9.6l11.9-1.9L197.9,3.1z M189.2,32.9
		l4.5-18.2L204,30.6L189.2,32.9z"/>
	<path id="XMLID_6_" d="M124.2,79.8c1,0,2.1-0.4,2.8-1.2c0.7-0.8,1.2-1.7,1.2-2.8s-0.4-2.1-1.2-2.8c-0.8-0.8-1.7-1.2-2.8-1.2
		s-2.1,0.4-2.8,1.2c-0.8,0.8-1.2,1.7-1.2,2.8s0.4,2.1,1.2,2.8C122.2,79.4,123.2,79.8,124.2,79.8z"/>
	<path id="XMLID_5_" d="M125.8,62.7c0.5,0.2,1,0.3,1.4,0.3c1.6,0,3.1-1,3.7-2.6l0,0c0.8-2-0.2-4.3-2.3-5.1c-2-0.8-4.3,0.2-5.1,2.3
		C122.7,59.7,123.8,62,125.8,62.7z"/>
	<path id="XMLID_4_" d="M130.7,51.6c0.7,0.5,1.5,0.8,2.3,0.8c1.3,0,2.4-0.6,3.2-1.6c1.3-1.7,0.9-4.3-0.8-5.5
		c-1.7-1.3-4.3-0.9-5.5,0.8C128.5,47.8,128.9,50.2,130.7,51.6z"/>
	<path id="XMLID_3_" d="M141.5,43.5c0.8,0,1.7-0.3,2.4-0.8c1.7-1.3,2-3.8,0.7-5.6c-1.3-1.7-3.8-2-5.6-0.7c-1.7,1.3-2,3.8-0.7,5.6
		C139.1,43,140.3,43.5,141.5,43.5z"/>
	<path id="XMLID_2_" d="M152,37.5c0.5,0,1-0.1,1.4-0.3c2-0.8,3.1-3.1,2.3-5.2c-0.8-2.1-3.1-3.1-5.2-2.2l0,0c-2,0.8-3.1,3.1-2.3,5.2
		C149,36.6,150.4,37.5,152,37.5z"/>
	<path id="XMLID_1_" d="M166.6,34.9c1,0,2.1-0.4,2.8-1.2c0.8-0.8,1.2-1.7,1.2-2.8c0-1-0.4-2.1-1.2-2.8c-0.8-0.8-1.7-1.2-2.8-1.2
		s-2.1,0.4-2.8,1.2c-0.8,0.8-1.2,1.7-1.2,2.8c0,1,0.4,2.1,1.2,2.8C164.5,34.5,165.6,34.9,166.6,34.9z"/>
</g>
</svg>