<?xml version="1.0" encoding="iso-8859-1"?>
<!-- Uploaded to: SVG Repo, www.svgrepo.com, Generator: SVG Repo Mixer Tools -->
<svg height="800px" width="800px" version="1.1" id="Layer_1" xmlns="http://www.w3.org/2000/svg" xmlns:xlink="http://www.w3.org/1999/xlink" 
	 viewBox="0 0 512.001 512.001" xml:space="preserve">
<g>
	<path style="fill:#D5DCEC;" d="M102.638,296.254h25.115v-79.881h-25.115c-8.187,0-14.825,6.638-14.825,14.825v50.231
		C87.813,289.617,94.45,296.254,102.638,296.254z"/>
	<path style="fill:#D5DCEC;" d="M196.689,134.114l-45.02,34.506l29.163-81.078c1.627-4.526,6.197-7.577,11.345-7.577h10.608h136.934
		h10.608c5.148,0,9.717,3.053,11.345,7.577l29.163,81.078l-45.02-34.506c0,0-29.163-23.165-69.724-22.164
		S196.689,134.114,196.689,134.114z"/>
	<path style="fill:#D5DCEC;" d="M345.815,377.799l45.02-34.506l-29.163,81.078c-1.627,4.526-6.197,7.577-11.345,7.577h-10.608
		H202.785h-10.608c-5.148,0-9.716-3.053-11.345-7.577l-29.163-81.078l45.02,34.506c0,0,29.163,23.165,69.724,22.164
		S345.815,377.799,345.815,377.799z"/>
</g>
<path style="fill:#E4EAF6;" d="M119.781,256.204c-0.059,83.742,67.839,151.639,151.58,151.58
	c82.339-0.058,151.305-69.023,151.363-151.363c0.059-83.742-67.839-151.639-151.58-151.58
	C188.804,104.901,119.839,173.865,119.781,256.204z"/>
<path style="fill:#C7CFE2;" d="M139.513,223.773c-23.269,100.018,64.261,187.548,164.28,164.28
	c43.989-10.234,88.965-55.21,99.199-99.199c23.269-100.018-64.261-187.548-164.28-164.28
	C194.722,134.808,149.746,179.784,139.513,223.773z"/>
<path style="fill:#FFFFFF;" d="M151.674,255.273c-0.569,66.868,53.751,121.188,120.619,120.619
	c64.926-0.552,117.985-53.612,118.538-118.538c0.569-66.868-53.751-121.188-120.619-120.619
	C205.286,137.288,152.226,190.348,151.674,255.273z"/>
<g>
	<path style="fill:#AA6455;" d="M352.502,81.341H190.966V26.304c0-10.222,8.286-18.509,18.509-18.509h124.518
		c10.222,0,18.509,8.286,18.509,18.509v55.037H352.502z"/>
	<path style="fill:#AA6455;" d="M190.966,429.42h161.536v55.037c0,10.222-8.286,18.509-18.509,18.509H209.475
		c-10.222,0-18.509-8.286-18.509-18.509V429.42H190.966z"/>
</g>
<g>
	<path style="fill:#9B5A50;" d="M223.901,60.873h95.666c4.403,0,7.972-3.569,7.972-7.972l0,0c0-4.403-3.569-7.972-7.972-7.972
		h-95.666c-4.403,0-7.972,3.569-7.972,7.972l0,0C215.928,57.304,219.498,60.873,223.901,60.873z"/>
	<path style="fill:#9B5A50;" d="M319.567,451.453h-95.666c-4.403,0-7.972,3.569-7.972,7.972l0,0c0,4.403,3.569,7.972,7.972,7.972
		h95.666c4.403,0,7.972-3.569,7.972-7.972l0,0C327.539,455.022,323.97,451.453,319.567,451.453z"/>
</g>
<path d="M431.784,255.7c-0.074-39.509-14.402-76.803-40.523-106.018c-0.039-0.145-0.073-0.29-0.122-0.436L370.64,88.134
	c-1.97-5.872-6.09-10.552-11.304-13.311l-0.097-51.332c-0.012-6.268-2.476-12.169-6.938-16.615C347.85,2.441,341.958,0,335.706,0
	c-0.015,0-0.03,0-0.045,0l-128.19,0.241c-6.268,0.012-12.169,2.476-16.615,6.938c-4.446,4.463-6.887,10.372-6.875,16.641
	l0.096,51.333c-5.204,2.779-9.306,7.474-11.254,13.353l-20.268,61.189c-0.068,0.204-0.121,0.411-0.17,0.617
	c-14.795,16.733-26.151,36.571-32.931,58.405l-15.746,0.029c-12.977,0.024-23.515,10.602-23.491,23.579l0.09,48.071
	c0.024,12.963,10.577,23.491,23.534,23.491c0.014,0,0.031,0,0.045,0l15.689-0.03c6.712,21.476,17.962,41.355,33.259,58.465
	c0.039,0.144,0.073,0.289,0.121,0.433l20.498,61.112c1.969,5.871,6.089,10.551,11.302,13.311l0.097,51.333
	c0.024,12.962,10.578,23.491,23.535,23.491c0.015,0,0.03,0,0.045,0l128.19-0.241c6.268-0.012,12.169-2.476,16.615-6.938
	c4.446-4.463,6.887-10.372,6.876-16.641l-0.096-51.332c5.205-2.779,9.308-7.475,11.256-13.354l20.268-61.189
	c0.068-0.206,0.121-0.413,0.171-0.62C416.697,333.427,431.86,296.297,431.784,255.7z M187.084,93.229
	c1.154-3.484,4.396-5.83,8.065-5.837l100.614-0.188c4.148-0.008,7.505-3.377,7.497-7.525c-0.008-4.144-3.369-7.497-7.511-7.497
	c-0.005,0-0.01,0-0.015,0l-96.64,0.181l-0.091-48.572c-0.004-2.255,0.882-4.391,2.496-6.01c1.613-1.619,3.745-2.514,6.001-2.519
	l128.19-0.241c0.005,0,0.011,0,0.016,0c2.25,0,4.379,0.886,5.994,2.496c1.619,1.613,2.514,3.745,2.519,6.001l0.091,48.572
	l-16.523,0.031c-4.148,0.008-7.505,3.377-7.497,7.525c0.008,4.143,3.369,7.497,7.511,7.497c0.005,0,0.01,0,0.015,0l20.497-0.038
	c0.006,0,0.011,0,0.017,0c3.662,0,6.905,2.331,8.07,5.806l11.947,35.617c-27.588-20.928-61.071-32.266-96.291-32.266h-0.306
	c-36.268,0.068-69.723,12.289-96.527,32.783L187.084,93.229z M271.775,111.285h0.278c79.642,0,144.559,64.797,144.708,144.443
	c0.15,79.796-64.647,144.837-144.442,144.986h-0.278c-79.642,0-144.559-64.797-144.709-144.443
	C127.183,176.476,191.979,111.435,271.775,111.285z M103.858,288.865c-2.242-0.002-4.391-0.882-6.01-2.496
	c-1.619-1.613-2.514-3.745-2.519-6.001l-0.09-48.071c-0.009-4.694,3.803-8.52,8.497-8.529l11.851-0.022
	c-2.165,10.516-3.297,21.404-3.277,32.554c0.021,11.064,1.169,21.953,3.37,32.541L103.858,288.865z M357.012,418.77
	c-1.154,3.484-4.395,5.829-8.065,5.836l-20.497,0.039c-4.148,0.008-7.505,3.377-7.497,7.525c0.008,4.143,3.369,7.497,7.511,7.497
	c0.005,0,0.01,0,0.015,0L345,439.636l0.091,48.572c0.004,2.255-0.882,4.391-2.496,6.01c-1.613,1.619-3.745,2.514-6.001,2.519
	l-128.19,0.241c-0.006,0-0.011,0-0.016,0c-4.686,0-8.504-3.809-8.513-8.497l-0.091-48.572l96.642-0.182
	c4.148-0.008,7.505-3.377,7.497-7.525c-0.008-4.144-3.369-7.497-7.511-7.497c-0.005,0-0.01,0-0.015,0l-100.614,0.189
	c-0.006,0-0.011,0-0.017,0c-3.662,0-6.905-2.331-8.07-5.806l-11.947-35.616c27.587,20.928,61.07,32.264,96.289,32.264h0.306
	c36.269-0.068,69.724-12.289,96.529-32.785L357.012,418.77z"/>
<path d="M272.044,383.69c0.073,0,0.155,0,0.229,0c0.005,0,0.01,0,0.015,0c70.408-0.132,127.581-57.521,127.449-127.93
	c-0.052-27.893-8.935-54.376-25.688-76.585c-2.499-3.312-7.207-3.972-10.52-1.473c-3.312,2.499-3.971,7.208-1.473,10.52
	c13.265,17.585,20.915,38.216,22.379,60.056l-8.248,0.016c-4.148,0.008-7.505,3.377-7.497,7.525
	c0.008,4.143,3.369,7.497,7.511,7.497c0.005,0,0.01,0,0.015,0l8.256-0.016c-3.609,56.159-48.557,101.276-104.702,105.097
	l-0.016-8.256c-0.008-4.143-3.369-7.497-7.511-7.497c-0.005,0-0.01,0-0.015,0c-4.148,0.008-7.505,3.377-7.497,7.525l0.016,8.255
	c-56.158-3.609-101.276-48.557-105.097-104.701l8.256-0.015c4.148-0.008,7.505-3.377,7.497-7.525
	c-0.008-4.143-3.369-7.497-7.511-7.497c-0.005,0-0.01,0-0.015,0l-8.26,0.015c1.732-27.27,13.149-52.682,32.611-72.218
	s44.832-31.048,72.095-32.882l0.015,8.26c0.008,4.143,3.369,7.497,7.511,7.497c0.005,0,0.01,0,0.015,0
	c4.148-0.008,7.505-3.377,7.497-7.525l-0.015-8.247c21.839,1.382,42.496,8.951,60.128,22.144c3.322,2.485,8.029,1.807,10.515-1.514
	s1.807-8.029-1.514-10.515c-22.204-16.614-48.622-25.39-76.419-25.39c-0.077,0-0.156,0-0.233,0c-0.005,0-0.01,0-0.015,0
	c-34.108,0.064-66.148,13.406-90.22,37.569s-37.293,56.252-37.229,90.36C144.489,326.571,201.741,383.696,272.044,383.69z"/>
<path d="M279.423,183.879c-0.008-4.143-3.369-7.497-7.511-7.497c-0.005,0-0.01,0-0.015,0c-4.148,0.008-7.505,3.377-7.497,7.525
	l0.136,72.107c0,0.064,0.008,0.126,0.01,0.19c0.004,0.149,0.011,0.298,0.023,0.448c0.009,0.104,0.021,0.207,0.035,0.31
	c0.018,0.139,0.038,0.277,0.064,0.416c0.021,0.113,0.045,0.224,0.071,0.335c0.029,0.123,0.06,0.245,0.095,0.368
	c0.036,0.124,0.075,0.245,0.117,0.367c0.037,0.106,0.075,0.212,0.116,0.317c0.052,0.132,0.11,0.262,0.169,0.391
	c0.043,0.092,0.086,0.184,0.133,0.275c0.07,0.135,0.145,0.267,0.222,0.398c0.032,0.054,0.058,0.11,0.091,0.163l40.18,64.02
	c1.426,2.273,3.87,3.519,6.369,3.519c1.364,0,2.745-0.372,3.985-1.15c3.513-2.205,4.574-6.841,2.37-10.354l-39.035-62.195
	L279.423,183.879z"/>
</svg>